<?xml version="1.0" encoding="utf-8" ?>
<svg xmlns="http://www.w3.org/2000/svg" xmlns:xlink="http://www.w3.org/1999/xlink" width="64" height="64">
	<clipPath id="cl_3">
		<rect width="64" height="64"/>
	</clipPath>
	<g clip-path="url(#cl_3)">
		<defs>
			<linearGradient id="gradient_0" gradientUnits="userSpaceOnUse" x1="-16" y1="0" x2="16" y2="0">
				<stop offset="0" stop-color="#B38243"/>
				<stop offset="0.54134035" stop-color="#B38243"/>
				<stop offset="1" stop-color="#DCB179"/>
			</linearGradient>
		</defs>
		<rect fill="url(#gradient_0)" transform="translate(32 38)" x="-16" y="-16" width="32" height="32"/>
		<rect fill="none" stroke="black" stroke-width="1" stroke-miterlimit="4" transform="translate(32 38)" x="-16" y="-16" width="32" height="32"/>
		<defs>
			<linearGradient id="gradient_1" gradientUnits="userSpaceOnUse" x1="-23" y1="9.5367432e-07" x2="23" y2="9.5367432e-07">
				<stop offset="0" stop-color="#971717"/>
				<stop offset="1" stop-color="#D76262"/>
			</linearGradient>
		</defs>
		<path fill="url(#gradient_1)" transform="translate(32 18)" d="M-1.16089e-06 -10L-23 10L23 10L-1.16089e-06 -10Z"/>
		<path fill="none" stroke="black" stroke-width="1" stroke-linejoin="round" transform="translate(32 18)" d="M-1.16089e-06 -10L-23 10L23 10L-1.16089e-06 -10Z"/>
		<rect fill="#A92828" transform="translate(32 45)" x="-4" y="-9" width="8" height="18"/>
		<rect fill="none" stroke="black" stroke-width="1" stroke-linejoin="round" transform="translate(32 45)" x="-4" y="-9" width="8" height="18"/>
		<defs>
			<linearGradient id="gradient_2" gradientUnits="userSpaceOnUse" x1="-4" y1="0" x2="4" y2="0">
				<stop offset="0" stop-color="#888"/>
				<stop offset="0.45536676" stop-color="#888"/>
				<stop offset="1" stop-color="white"/>
			</linearGradient>
		</defs>
		<rect fill="url(#gradient_2)" transform="matrix(-4.37114e-08 1 -1 -4.37114e-08 22 38)" x="-4" y="-4" width="8" height="8"/>
		<rect fill="none" stroke="black" stroke-width="1" stroke-linejoin="round" transform="matrix(-4.37114e-08 1 -1 -4.37114e-08 22 38)" x="-4" y="-4" width="8" height="8"/>
		<path fill="none" stroke="black" stroke-width="1" stroke-miterlimit="4" transform="translate(22 38)" d="M-4 0L4 0L4 0L-4 0Z"/>
		<defs>
			<linearGradient id="gradient_3" gradientUnits="userSpaceOnUse" x1="-4" y1="0" x2="4" y2="0">
				<stop offset="0" stop-color="#888"/>
				<stop offset="0.45536676" stop-color="#888"/>
				<stop offset="1" stop-color="white"/>
			</linearGradient>
		</defs>
		<rect fill="url(#gradient_3)" transform="matrix(-4.37114e-08 1 -1 -4.37114e-08 42 38)" x="-4" y="-4" width="8" height="8"/>
		<rect fill="none" stroke="black" stroke-width="1" stroke-linejoin="round" transform="matrix(-4.37114e-08 1 -1 -4.37114e-08 42 38)" x="-4" y="-4" width="8" height="8"/>
		<path fill="none" stroke="black" stroke-width="1" stroke-miterlimit="4" transform="translate(42 38)" d="M-4 0L4 0L4 0L-4 0Z"/>
	</g>
</svg>
